<svg width="50" height="50" viewBox="0 0 50 50" fill="none" xmlns="http://www.w3.org/2000/svg">
<g clip-path="url(#clip0_1_21)">
<path d="M12.0521 7.1125C12.9494 6.58725 13.8814 6.12368 14.8417 5.725C16.8565 4.87455 18.9894 4.33709 21.1667 4.13125L23.5146 6.78541L22.4208 9.53333C20.3009 9.9449 18.2704 10.7278 16.4229 11.8458L16.0167 12.0958L15.6458 8.47708L12.0521 7.10208V7.1125ZM11.0313 7.75833L14.7583 9.19583L15.15 12.7583C13.1342 14.2376 11.5141 16.1911 10.4333 18.4458C10.3282 18.6501 10.2316 18.8586 10.1438 19.0708L7.51875 15.8854L3.23959 16.7896C4.302 14.4993 5.75652 12.4124 7.5375 10.6229C8.60973 9.5368 9.76737 8.58125 11.0104 7.75625L11.0313 7.75833ZM35.5771 32.8666C35.9827 32.193 36.316 31.5055 36.5771 30.8041L40.6146 35.7L47.3959 34.2396C47.0029 35.3142 46.5423 36.3628 46.0167 37.3791C44.6403 40.0425 42.7678 42.4184 40.5 44.3791C38.2103 46.3661 35.5361 47.8603 32.6438 48.7687L32.4708 48.8229L27.4479 44.575L28.7583 38.7937L28.8646 38.75C31.7375 37.5 33.9833 35.5646 35.5813 32.8437V32.8666H35.5771ZM44.0688 10.0104C44.4833 10.5792 44.8688 11.1771 45.2417 11.7896C46.7757 14.3682 47.8599 17.189 48.4479 20.1312C49.0125 23.0687 49.1042 26.025 48.6979 28.9896C48.4863 30.4032 48.163 31.7978 47.7313 33.1604L40.95 34.6166L36.8875 29.7062C37.3665 27.8602 37.4093 25.928 37.0125 24.0625C36.5827 21.8373 35.5326 19.779 33.9833 18.125L41.2938 17.25L44.0146 10.0083L44.0688 10.0104ZM2.7875 17.8833L7.1625 16.9583L9.7375 20.1021C8.92292 22.3604 8.7375 24.7062 9.14375 27.1437C9.2375 27.8396 9.39167 28.5104 9.58125 29.1625L4.95625 28.1104L1.64375 32.0291C1.24555 30.2837 1.04774 28.4986 1.05417 26.7083C1.05833 23.6861 1.61875 20.7701 2.73542 17.9604L2.76875 17.8792L2.7875 17.8833ZM9.95834 30.2458C10.6314 32.0212 11.6265 33.657 12.8938 35.0708C13.8625 36.1937 14.9563 37.1021 16.15 37.8187L11.5667 40.4458L11.8167 46.4125C10.2999 45.4673 8.90117 44.3448 7.65 43.0687C5.54381 40.9167 3.88667 38.3672 2.775 35.5687C2.46459 34.7875 2.2125 34.0062 1.99375 33.225L5.4 29.2271L10.025 30.2875L9.95834 30.2458ZM17.15 38.3646C18.1361 38.8562 19.1903 39.2312 20.3125 39.4896C22.7429 40.0765 25.2888 39.9748 27.6646 39.1958L26.3625 44.9396L31.3354 49.1479C28.8491 49.798 26.2807 50.0795 23.7125 49.9833C19.8935 49.87 16.1569 48.845 12.8146 46.9937L12.5667 40.9896L17.15 38.3646ZM43.3646 9.09166L40.6292 16.3542L33.1 17.2604C32.8855 17.0678 32.6578 16.8903 32.4188 16.7292C30.0008 14.875 27.1103 13.738 24.0771 13.4479C23.3563 13.3875 22.6708 13.3875 22.0146 13.3875L24.6396 6.66667L18.9583 0.197919C20.6813 0.0104186 22.3688 -0.018748 24.0813 0.0104187C25.1007 0.0395853 26.1139 0.118057 27.1208 0.245835C28.5375 0.431252 29.9354 0.743752 31.3188 1.12083C34.2458 1.95417 36.9125 3.275 39.3229 5.14167C40.8252 6.28972 42.1824 7.61611 43.3646 9.09166Z" fill="#FA6B1C"/>
</g>
<defs>
<clipPath id="clip0_1_21">
<rect width="50" height="50" fill="white"/>
</clipPath>
</defs>
</svg>
